<svg preserveAspectRatio="none" width="100%" height="100%" overflow="visible" style="display: block;" viewBox="0 0 64 64" fill="none" xmlns="http://www.w3.org/2000/svg">
<g id="Icon">
<path id="Vector" d="M53.3333 26.6667C53.3333 39.9813 38.5627 53.848 33.6027 58.1307C33.1406 58.4781 32.5781 58.666 32 58.666C31.4219 58.666 30.8594 58.4781 30.3973 58.1307C25.4373 53.848 10.6667 39.9813 10.6667 26.6667C10.6667 21.0087 12.9143 15.5825 16.9151 11.5817C20.9158 7.58095 26.342 5.33333 32 5.33333C37.658 5.33333 43.0842 7.58095 47.0849 11.5817C51.0857 15.5825 53.3333 21.0087 53.3333 26.6667Z" stroke="var(--stroke-0, #B8962E)" stroke-width="4" stroke-linecap="round" stroke-linejoin="round"/>
<path id="Vector_2" d="M32 34.6667C36.4183 34.6667 40 31.0849 40 26.6667C40 22.2484 36.4183 18.6667 32 18.6667C27.5817 18.6667 24 22.2484 24 26.6667C24 31.0849 27.5817 34.6667 32 34.6667Z" stroke="var(--stroke-0, #B8962E)" stroke-width="4" stroke-linecap="round" stroke-linejoin="round"/>
</g>
</svg>
