<svg preserveAspectRatio="none" width="100%" height="100%" overflow="visible" style="display: block;" viewBox="0 0 58.0972 48" fill="none" xmlns="http://www.w3.org/2000/svg">
<g id="Group 17">
<path id="Vector" d="M22.8206 22.4083C21.8674 21.8274 20.6286 22.113 20.0221 23.0469C19.4188 23.984 19.6723 25.2325 20.5934 25.8583C21.0202 26.1376 30.9529 32.7938 25.523 45.1084C25.2983 45.609 25.2855 46.1771 25.4845 46.6874C25.6834 47.1945 26.0782 47.6053 26.582 47.8203C26.8388 47.939 27.1212 48 27.4036 48C28.2188 48 28.9569 47.5154 29.2843 46.7676C36.1524 31.1827 22.9491 22.4912 22.8206 22.4083Z" fill="var(--fill-0, #B8962E)"/>
<path id="Vector_2" d="M18.7682 7.47245C15.0293 3.00182 9.46776 0.488881 2.23689 0.00430369H2.2401C1.69451 -0.0309995 1.15534 0.151936 0.744546 0.514589C0.330536 0.87725 0.0834158 1.39394 0.0545367 1.94277C-0.346632 9.17988 1.4667 15.0045 5.45267 19.2604C11.7944 26.0161 21.2175 26.1894 21.6537 26.1894C22.7 26.1862 23.5794 25.4031 23.6981 24.3632C23.7238 23.9942 24.7088 14.5784 18.7682 7.47245ZM8.42433 16.4262C5.63863 13.4351 4.19443 9.37847 4.11095 4.32409C9.11431 5.02373 12.9686 6.95254 15.6133 10.0753C18.8997 14.042 19.5801 19.1128 19.6571 21.8726C16.9035 21.4714 11.9579 20.2133 8.42433 16.4262Z" fill="var(--fill-0, #B8962E)"/>
<path id="Vector_3" d="M57.5812 5.15483C57.2185 4.74403 56.705 4.4937 56.1594 4.46482C48.9127 4.06365 43.0878 5.88659 38.8418 9.86937C32.0796 16.195 31.916 25.6366 31.9064 26.0384C31.9 27.091 32.6862 27.9801 33.7293 28.102C33.8352 28.102 34.5509 28.1854 35.6678 28.1854C38.8643 28.1854 45.37 27.5789 50.62 23.1917C55.0971 19.4528 57.6132 13.8912 58.0882 6.66034L58.0914 6.65713C58.1331 6.10833 57.9471 5.56563 57.5812 5.15483ZM48.017 20.0175C44.0406 23.352 38.9794 23.9843 36.2098 24.0613C36.611 21.343 37.853 16.4294 41.6497 12.8704C44.6312 10.0686 48.707 8.61474 53.7781 8.52485C53.0785 13.5282 51.1461 17.4213 48.017 20.0175Z" fill="var(--fill-0, #B8962E)"/>
<path id="Vector_4" d="M35.704 24.9634C35.0975 24.0038 33.8298 23.715 32.867 24.3151C27.8155 27.486 26.8205 33.8694 26.7788 34.1743C26.6985 34.7102 26.8333 35.259 27.1543 35.6955C27.4752 36.1352 27.9598 36.4273 28.4958 36.5075H28.8103C29.8245 36.5075 30.6845 35.7661 30.8387 34.7648C30.8387 34.7231 31.6602 29.9668 35.0525 27.8134C35.5179 27.5245 35.8485 27.0592 35.9704 26.5232C36.0924 25.9905 35.9961 25.4287 35.704 24.9634Z" fill="var(--fill-0, #B8962E)"/>
</g>
</svg>
