<svg preserveAspectRatio="none" width="100%" height="100%" overflow="visible" style="display: block;" viewBox="0 0 127 51" fill="none" xmlns="http://www.w3.org/2000/svg">
<g id="Group 16">
<path id="Vector" d="M14.1647 0.359307C17.2531 0.0899533 21.6811 1.60986 23.813 3.87782C25.7168 5.9031 25.8698 8.05633 25.7276 10.6749C24.9896 10.812 24.0528 10.9114 23.3016 10.9933C17.4157 11.6345 11.4477 12.7457 5.5647 13.3081C5.66368 16.6065 5.77148 18.2405 7.20991 21.3324C9.78852 26.875 16.8471 29.4854 22.4976 26.6848C23.2875 26.3078 24.9291 24.8565 25.6192 25.2589C25.9132 25.8653 25.2895 28.0504 25.0765 28.7365C23.5436 29.1958 22.0178 29.4174 20.4421 29.6492C11.8739 30.9101 1.66185 25.9005 0.641338 16.7772C-0.40189 7.44957 4.782 1.38219 14.1647 0.359307ZM5.77736 11.2274C7.36893 10.9632 12.2973 10.2275 13.7991 10.1418C16.4575 9.74818 19.1987 9.41385 21.8719 9.04837C21.6289 7.8825 21.4546 6.8218 20.8185 5.77892C19.2518 3.21006 16.19 2.25732 13.2617 2.53533C9.34403 3.1818 7.41345 5.68767 6.30055 9.2832C6.10239 9.9231 5.96781 10.5908 5.77736 11.2274Z" fill="var(--fill-0, #635C44)"/>
<path id="Vector_2" d="M83.1111 0.358699C86.2214 0.0763108 90.7799 1.63432 92.8679 3.99055C94.6558 6.00746 94.8617 8.11891 94.6579 10.6687C93.8618 10.8323 92.513 10.9594 91.6581 11.0701L85.8563 11.831C82.529 12.2743 77.7068 13.0886 74.5326 13.2951C74.6381 16.6028 74.7517 18.4062 76.2404 21.4964C78.8497 26.9109 85.9232 29.4705 91.4573 26.6845C92.3578 26.2657 93.4125 25.3142 94.2968 25.1222C94.4114 25.0973 94.4986 25.2166 94.594 25.3042C94.7988 25.9718 94.2624 28.0177 94.0362 28.7268C92.5576 29.1982 90.9837 29.418 89.4554 29.6446C80.8344 30.9229 70.6053 25.8968 69.5983 16.7124C68.5794 7.41961 73.7791 1.38368 83.1111 0.358699ZM74.7415 11.2264C75.9047 11.0432 81.4641 10.1368 82.3383 10.203C85.1353 9.8216 88.0407 9.47364 90.8194 9.04488C90.6227 8.04926 90.4685 7.13354 90.0213 6.20975C88.6634 3.40965 85.2346 2.21631 82.246 2.54229C78.3396 3.11721 76.3682 5.71055 75.2618 9.2621C75.0599 9.91165 74.9301 10.5794 74.7415 11.2264Z" fill="var(--fill-0, #635C44)"/>
<path id="Vector_3" d="M48.726 22.0168C50.3265 16.0885 53.4119 10.2789 54.488 4.18254C54.6284 3.38751 54.3158 1.96582 54.5879 1.24084C55.1729 0.643527 58.8959 0.710392 59.5074 1.2497C59.5382 1.59129 57.5542 4.38254 57.2301 4.95179C56.7702 5.75716 56.3715 6.59468 56.0374 7.45757L50.7742 22.431C50.2274 23.9971 49.1348 27.7247 48.3873 28.9417C48.2253 29.2055 47.9788 29.3548 47.6764 29.4253C47.3078 29.511 46.8437 29.4789 46.5225 29.2665C45.8063 28.7928 43.7766 22.2393 43.366 21.0636C41.7462 16.4262 40.2858 11.6757 38.464 7.11369C38.1597 6.35378 37.8176 5.60891 37.439 4.88184C36.9792 4.00254 35.3815 1.89019 35.9584 1.1296C36.6426 0.756461 38.3419 0.865816 39.1943 0.869C40.0837 0.861537 42.941 0.725716 43.5522 1.16621C43.9503 1.88711 42.9421 3.30343 43.0135 4.22771L43.0194 4.29587C43.1669 6.14214 44.4182 9.18483 44.9917 10.9846C46.0976 14.4545 47.7986 18.5444 48.726 22.0168Z" fill="var(--fill-0, #635C44)"/>
<path id="Vector_4" d="M121.9 0.040132C126.642 -0.45171 129.275 3.70581 124.393 5.47715C123.962 5.37725 123.112 5.03387 122.666 4.84322C121.363 4.26173 119.506 4.42591 118.211 5.00571C116.165 5.92094 113.934 8.65756 113.911 10.9002C113.884 13.5516 113.906 16.1776 113.911 18.8247C113.916 21.2205 113.824 23.6264 113.99 26.0122C114.029 26.5549 114.975 28.3039 115.276 28.9461C114.651 29.4767 108.177 29.5315 107.636 28.8902C107.612 28.6178 107.677 28.5604 107.838 28.3303C108.879 26.9672 109.024 26.1038 109.029 24.4176C109.016 19.7147 109.141 14.9874 108.96 10.2885C108.855 7.56721 108.909 5.15835 106.914 3.07417C107.908 2.0476 111.376 1.10322 112.843 0.450878C113.155 0.311574 113.342 0.403117 113.588 0.534062C113.828 0.899038 113.618 1.64949 113.499 2.05078C112.99 3.76213 113.458 5.19218 113.526 6.91845C114.035 6.47845 114.713 5.58332 115.221 5.04551C117.043 3.11854 119.267 0.807596 121.9 0.040132Z" fill="var(--fill-0, #635C44)"/>
<path id="Vector_5" d="M47.8657 40.5704C49.4538 40.5 51.4333 40.6445 52.6094 41.7599C54.872 43.906 54.6627 47.3702 52.7249 49.5616C51.0235 50.9551 49.7172 50.8696 47.6429 50.8645C47.4083 47.7639 47.6979 44.2604 47.615 41.1292C47.6082 40.8686 47.7134 40.7629 47.8657 40.5704ZM51.4509 48.2968C53.2462 45.9686 52.5745 42.5356 49.3433 42.2356C49.2421 43.0902 49.1216 48.4515 49.4647 49.0841C50.0868 49.2864 50.9999 48.6987 51.4509 48.2968Z" fill="var(--fill-0, #635C44)"/>
<path id="Vector_6" d="M2.9063 40.5301C3.90065 40.4635 4.37628 40.3913 4.70303 41.5003C5.4476 44.0272 6.00881 46.5997 6.80621 49.114C7.06816 49.9403 7.358 51.1317 6.00039 50.9881C4.95483 50.5802 5.55499 49.1833 4.29849 49.0662C3.59753 49.0719 2.86462 49.0535 2.16092 49.0462C2.03913 49.5338 1.93447 49.9895 1.74716 50.4585C1.46879 51.1556 -0.11994 51.0031 0.00723088 50.4389C0.701094 47.3631 1.63906 44.3033 2.47104 41.2557C2.54548 40.9832 2.72102 40.7404 2.9063 40.5301ZM3.48598 47.3739C3.90836 47.3093 4.06646 47.3557 4.35467 47.1292C4.35913 46.6097 3.92459 45.1489 3.57177 44.7734C3.14391 45.3145 2.61971 46.5185 2.85225 47.2049C3.13357 47.4133 3.07891 47.3502 3.48598 47.3739Z" fill="var(--fill-0, #635C44)"/>
<path id="Vector_7" d="M90.6389 40.5282C91.0375 40.4996 91.6125 40.4184 91.9522 40.6722C92.4593 41.0504 94.5585 49.1257 94.7289 50.2482C94.7684 50.5075 94.7492 50.5684 94.593 50.7683C92.9856 51.4378 93.2138 50.2634 92.6256 49.2674C92.4877 49.0348 92.1723 49.0774 91.9187 49.0617L89.8834 49.0685C89.709 49.5681 89.6005 50.3791 89.211 50.7367C88.8338 51.0835 88.0823 51.0013 87.7659 50.5915C87.7578 49.2596 89.8033 42.9352 90.1927 41.1976C90.2434 40.9718 90.4706 40.7005 90.6389 40.5282ZM91.3904 47.3721L91.8985 47.2669C92.2463 46.7178 91.7402 45.2569 91.3062 44.8845L91.145 44.8262C91.0192 45.12 90.8661 45.4425 90.7647 45.7439C90.429 46.7357 90.0264 47.3134 91.3904 47.3721Z" fill="var(--fill-0, #635C44)"/>
<path id="Vector_8" d="M71.2406 44.8489C71.196 43.5786 71.124 42.2768 71.2421 41.0119C71.3145 40.2367 72.8627 40.4768 72.8767 40.8006C73.0164 44.0063 73.0263 47.3166 72.8827 50.5249C72.8731 50.741 72.6517 50.8334 72.4974 50.9224C72.1385 50.941 71.6114 51.0103 71.3906 50.6826C70.4728 49.3188 72.5565 46.422 69.8069 46.4548C67.6366 46.4807 68.7018 48.3925 68.6126 49.7394C68.527 51.0305 67.8951 50.9555 66.867 50.8797C66.8243 50.5813 66.7935 50.2814 66.7747 49.9806C66.7448 49.4792 66.7538 48.9221 66.7572 48.4166C66.7741 45.9556 66.6963 43.4835 66.7908 41.0262C66.7975 40.8501 66.9582 40.6513 67.072 40.5261C67.1945 40.5185 67.6207 40.4949 67.7139 40.5048C69.5389 40.6983 67.885 43.7968 68.6894 44.7499C69.2409 45.0318 70.5948 44.8838 71.2406 44.8489Z" fill="var(--fill-0, #635C44)"/>
<path id="Vector_9" d="M123.654 44.816C123.654 43.6598 123.491 42.301 123.675 41.1616C123.794 40.4164 124.423 40.3869 125.051 40.6074C125.214 40.7631 125.331 40.936 125.333 41.2538C125.352 44.3382 125.459 47.561 125.271 50.6297C125.174 50.7397 125.094 50.8306 125.031 50.9022C124.67 50.9432 124.117 50.9771 123.801 50.7908C123.535 50.3156 123.628 47.3375 123.612 46.5813C122.767 46.4796 121.766 46.5157 120.92 46.5563C120.868 47.3537 121.131 50.398 120.653 50.8447C120.23 50.9802 119.709 50.8964 119.255 50.858C119.241 50.7657 119.23 50.673 119.221 50.5799C119.184 50.1779 119.191 49.6924 119.194 49.2858C119.216 46.5498 119.164 43.8065 119.224 41.0729C119.228 40.8769 119.401 40.661 119.527 40.5157C119.665 40.5087 119.803 40.5035 119.942 40.5002C121.467 40.4686 120.965 43.7248 120.972 44.8884C121.898 44.9183 122.733 44.9106 123.654 44.816Z" fill="var(--fill-0, #635C44)"/>
<path id="Vector_10" d="M78.1551 40.5519C79.3051 40.5574 80.4622 40.5491 81.6041 40.5481C82.1791 40.6093 82.7927 40.4123 82.9691 41.0834C83.6222 43.571 79.0952 40.9896 79.4075 43.293C79.5343 44.2249 81.0656 43.4245 81.8566 43.9656C82.0939 44.2592 82.0442 44.3071 82.0828 44.6402C82.2187 45.8212 80.2736 45.5181 79.4227 45.5016L79.439 48.8857C79.5312 49.5247 82.172 48.9182 82.8545 49.3718C83.0361 49.7711 83.1233 50.5063 82.7207 50.7873C81.8303 50.909 78.6895 50.9224 77.861 50.7504C77.5071 50.0008 77.7251 42.3848 77.6855 40.9828C77.6795 40.7647 77.9736 40.6493 78.1551 40.5519Z" fill="var(--fill-0, #635C44)"/>
<path id="Vector_11" d="M38.0526 40.5439C38.8996 40.5522 42.3703 40.3981 42.8183 40.7811C42.9316 41.1791 42.8234 41.7761 42.7755 42.2046C42.2914 42.2268 39.7461 42.2752 39.4753 42.3579C39.3208 42.5494 39.2586 42.8745 39.2908 43.0937C39.4525 44.1939 41.042 43.4543 41.8687 44.0441C42.0545 44.3556 42.0555 44.35 42.0111 44.7473C41.8558 46.1349 40.4035 45.0974 39.507 45.6635C39.1795 46.1324 39.3311 48.12 39.3394 48.8035L39.352 48.9522C39.8047 49.5189 41.7446 48.9195 42.6656 49.3258C43.0795 49.722 43.071 50.1253 42.7216 50.5898C42.6226 50.7156 42.282 50.8983 42.1204 50.8938C40.647 50.8531 39.1319 50.8596 37.6606 50.8659C37.4768 48.4378 37.7076 43.5265 37.6306 40.8849C37.6261 40.7329 37.8936 40.6299 38.0526 40.5439Z" fill="var(--fill-0, #635C44)"/>
<path id="Vector_12" d="M110.066 40.5675C110.935 40.5529 113.878 40.3166 114.189 40.7806C115.438 42.6462 112.803 42.3109 112.368 42.3225C112.195 44.5749 112.387 48.0021 112.329 50.446C112.099 51.1222 111.285 50.9225 110.678 50.8784C110.444 49.1308 110.597 44.2887 110.612 42.3027C109.795 42.2788 108.447 42.3828 108.252 41.3613C108.514 40.5556 109.374 40.5656 110.066 40.5675Z" fill="var(--fill-0, #635C44)"/>
<path id="Vector_13" d="M22.1956 40.4381C22.9898 40.524 23.2074 40.603 23.2198 41.4705C23.2567 44.054 23.1678 46.5929 23.3578 49.1753C24.5736 49.1613 27.1141 48.703 26.2623 50.657C25.9544 50.8859 26.03 50.8182 25.5951 50.854C24.2439 50.8774 22.8924 50.8744 21.5413 50.8453C21.4306 50.1355 21.3927 41.4366 21.542 40.8415C21.7408 40.5544 21.8673 40.5409 22.1956 40.4381Z" fill="var(--fill-0, #635C44)"/>
<path id="Vector_14" d="M99.838 40.532C100.24 40.4845 100.684 40.4472 101.041 40.638C101.351 41.0737 101.297 48.0847 101.336 49.1827C102.304 49.2411 103.547 48.9336 104.311 49.4306C104.613 49.9201 104.577 50.4412 104.183 50.8622C102.667 50.8495 101.152 50.8551 99.6382 50.8793C99.5855 50.4333 99.5216 49.4142 99.5591 49.0093C99.7244 47.2575 99.1717 41.7735 99.838 40.532Z" fill="var(--fill-0, #635C44)"/>
<path id="Vector_15" d="M12.1887 40.5309C12.5596 40.5005 12.9321 40.4254 13.2559 40.5838C13.312 40.6485 13.3793 40.7262 13.4579 40.8167C13.614 43.0329 13.5598 47.0784 13.6111 49.1695C14.9778 49.2134 17.5941 48.5928 16.5096 50.8694C15.0204 50.8322 13.423 50.8616 11.9258 50.8638C11.8835 50.35 11.8871 49.825 11.8899 49.3083C11.905 46.57 11.8202 43.8215 11.915 41.086C11.9223 40.8736 12.054 40.6876 12.1887 40.5309Z" fill="var(--fill-0, #635C44)"/>
<path id="Vector_16" d="M31.374 40.5399C31.798 40.4955 32.2646 40.4388 32.6338 40.6494C33.0756 41.1979 32.7387 47.2192 32.8468 48.3331C32.8919 48.7989 32.922 50.5374 32.604 50.8691C32.0446 50.9525 31.7423 50.9107 31.1879 50.864C31.1412 50.3547 31.1335 49.8658 31.137 49.354C31.1563 46.5809 31.0967 43.8019 31.1456 41.0305C31.1486 40.8634 31.2749 40.6709 31.374 40.5399Z" fill="var(--fill-0, #635C44)"/>
</g>
</svg>
